solid ASCII
  facet normal 0.000000e+00 0.000000e+00 -1.000000e+00
    outer loop
      vertex   0.000000e+00 -2.540456e+01 4.420757e+01
      vertex   0.000000e+00 3.259544e+01 4.420757e+01
      vertex   1.000000e+01 -2.540456e+01 4.420757e+01
    endloop
  endfacet
  facet normal 0.000000e+00 0.000000e+00 -1.000000e+00
    outer loop
      vertex   1.000000e+01 -2.540456e+01 4.420757e+01
      vertex   0.000000e+00 3.259544e+01 4.420757e+01
      vertex   1.000000e+01 3.259544e+01 4.420757e+01
    endloop
  endfacet
  facet normal 0.000000e+00 -1.000000e+00 0.000000e+00
    outer loop
      vertex   0.000000e+00 -2.540456e+01 4.620757e+01
      vertex   0.000000e+00 -2.540456e+01 4.420757e+01
      vertex   1.000000e+01 -2.540456e+01 4.620757e+01
    endloop
  endfacet
  facet normal 0.000000e+00 -1.000000e+00 -0.000000e+00
    outer loop
      vertex   1.000000e+01 -2.540456e+01 4.620757e+01
      vertex   0.000000e+00 -2.540456e+01 4.420757e+01
      vertex   1.000000e+01 -2.540456e+01 4.420757e+01
    endloop
  endfacet
  facet normal -0.000000e+00 0.000000e+00 1.000000e+00
    outer loop
      vertex   0.000000e+00 3.459544e+01 4.620757e+01
      vertex   0.000000e+00 -2.540456e+01 4.620757e+01
      vertex   1.000000e+01 3.459544e+01 4.620757e+01
    endloop
  endfacet
  facet normal 0.000000e+00 0.000000e+00 1.000000e+00
    outer loop
      vertex   1.000000e+01 3.459544e+01 4.620757e+01
      vertex   0.000000e+00 -2.540456e+01 4.620757e+01
      vertex   1.000000e+01 -2.540456e+01 4.620757e+01
    endloop
  endfacet
  facet normal -0.000000e+00 1.000000e+00 0.000000e+00
    outer loop
      vertex   0.000000e+00 3.459544e+01 -6.479243e+01
      vertex   0.000000e+00 3.459544e+01 4.620757e+01
      vertex   1.000000e+01 3.459544e+01 -6.479243e+01
    endloop
  endfacet
  facet normal 0.000000e+00 1.000000e+00 -0.000000e+00
    outer loop
      vertex   1.000000e+01 3.459544e+01 -6.479243e+01
      vertex   0.000000e+00 3.459544e+01 4.620757e+01
      vertex   1.000000e+01 3.459544e+01 4.620757e+01
    endloop
  endfacet
  facet normal -1.421085e-15 0.000000e+00 -1.000000e+00
    outer loop
      vertex   0.000000e+00 -2.540456e+01 -6.479243e+01
      vertex   0.000000e+00 3.459544e+01 -6.479243e+01
      vertex   1.000000e+01 -2.540456e+01 -6.479243e+01
    endloop
  endfacet
  facet normal -1.421085e-15 0.000000e+00 -1.000000e+00
    outer loop
      vertex   1.000000e+01 -2.540456e+01 -6.479243e+01
      vertex   0.000000e+00 3.459544e+01 -6.479243e+01
      vertex   1.000000e+01 3.459544e+01 -6.479243e+01
    endloop
  endfacet
  facet normal 0.000000e+00 -1.000000e+00 0.000000e+00
    outer loop
      vertex   0.000000e+00 -2.540456e+01 -6.279243e+01
      vertex   0.000000e+00 -2.540456e+01 -6.479243e+01
      vertex   1.000000e+01 -2.540456e+01 -6.279243e+01
    endloop
  endfacet
  facet normal 0.000000e+00 -1.000000e+00 -0.000000e+00
    outer loop
      vertex   1.000000e+01 -2.540456e+01 -6.279243e+01
      vertex   0.000000e+00 -2.540456e+01 -6.479243e+01
      vertex   1.000000e+01 -2.540456e+01 -6.479243e+01
    endloop
  endfacet
  facet normal -0.000000e+00 0.000000e+00 1.000000e+00
    outer loop
      vertex   0.000000e+00 3.259544e+01 -6.279243e+01
      vertex   0.000000e+00 -2.540456e+01 -6.279243e+01
      vertex   1.000000e+01 3.259544e+01 -6.279243e+01
    endloop
  endfacet
  facet normal 0.000000e+00 0.000000e+00 1.000000e+00
    outer loop
      vertex   1.000000e+01 3.259544e+01 -6.279243e+01
      vertex   0.000000e+00 -2.540456e+01 -6.279243e+01
      vertex   1.000000e+01 -2.540456e+01 -6.279243e+01
    endloop
  endfacet
  facet normal 0.000000e+00 -1.000000e+00 0.000000e+00
    outer loop
      vertex   0.000000e+00 3.259544e+01 4.420757e+01
      vertex   0.000000e+00 3.259544e+01 -6.279243e+01
      vertex   1.000000e+01 3.259544e+01 4.420757e+01
    endloop
  endfacet
  facet normal 0.000000e+00 -1.000000e+00 -0.000000e+00
    outer loop
      vertex   1.000000e+01 3.259544e+01 4.420757e+01
      vertex   0.000000e+00 3.259544e+01 -6.279243e+01
      vertex   1.000000e+01 3.259544e+01 -6.279243e+01
    endloop
  endfacet
  facet normal 1.000000e+00 0.000000e+00 0.000000e+00
    outer loop
      vertex   1.000000e+01 3.259544e+01 -6.279243e+01
      vertex   1.000000e+01 3.459544e+01 4.620757e+01
      vertex   1.000000e+01 3.259544e+01 4.420757e+01
    endloop
  endfacet
  facet normal 1.000000e+00 0.000000e+00 -0.000000e+00
    outer loop
      vertex   1.000000e+01 3.259544e+01 4.420757e+01
      vertex   1.000000e+01 3.459544e+01 4.620757e+01
      vertex   1.000000e+01 -2.540456e+01 4.620757e+01
    endloop
  endfacet
  facet normal 1.000000e+00 0.000000e+00 0.000000e+00
    outer loop
      vertex   1.000000e+01 3.259544e+01 4.420757e+01
      vertex   1.000000e+01 -2.540456e+01 4.620757e+01
      vertex   1.000000e+01 -2.540456e+01 4.420757e+01
    endloop
  endfacet
  facet normal 1.000000e+00 -0.000000e+00 0.000000e+00
    outer loop
      vertex   1.000000e+01 -2.540456e+01 -6.279243e+01
      vertex   1.000000e+01 -2.540456e+01 -6.479243e+01
      vertex   1.000000e+01 3.259544e+01 -6.279243e+01
    endloop
  endfacet
  facet normal 1.000000e+00 0.000000e+00 0.000000e+00
    outer loop
      vertex   1.000000e+01 3.259544e+01 -6.279243e+01
      vertex   1.000000e+01 -2.540456e+01 -6.479243e+01
      vertex   1.000000e+01 3.459544e+01 -6.479243e+01
    endloop
  endfacet
  facet normal 1.000000e+00 -0.000000e+00 0.000000e+00
    outer loop
      vertex   1.000000e+01 3.259544e+01 -6.279243e+01
      vertex   1.000000e+01 3.459544e+01 -6.479243e+01
      vertex   1.000000e+01 3.459544e+01 4.620757e+01
    endloop
  endfacet
  facet normal -1.000000e+00 0.000000e+00 0.000000e+00
    outer loop
      vertex   0.000000e+00 3.259544e+01 4.420757e+01
      vertex   0.000000e+00 3.459544e+01 -6.479243e+01
      vertex   0.000000e+00 3.259544e+01 -6.279243e+01
    endloop
  endfacet
  facet normal -1.000000e+00 0.000000e+00 -0.000000e+00
    outer loop
      vertex   0.000000e+00 3.259544e+01 -6.279243e+01
      vertex   0.000000e+00 3.459544e+01 -6.479243e+01
      vertex   0.000000e+00 -2.540456e+01 -6.479243e+01
    endloop
  endfacet
  facet normal -1.000000e+00 -0.000000e+00 0.000000e+00
    outer loop
      vertex   0.000000e+00 3.259544e+01 -6.279243e+01
      vertex   0.000000e+00 -2.540456e+01 -6.479243e+01
      vertex   0.000000e+00 -2.540456e+01 -6.279243e+01
    endloop
  endfacet
  facet normal -1.000000e+00 0.000000e+00 0.000000e+00
    outer loop
      vertex   0.000000e+00 -2.540456e+01 4.420757e+01
      vertex   0.000000e+00 -2.540456e+01 4.620757e+01
      vertex   0.000000e+00 3.259544e+01 4.420757e+01
    endloop
  endfacet
  facet normal -1.000000e+00 0.000000e+00 0.000000e+00
    outer loop
      vertex   0.000000e+00 3.259544e+01 4.420757e+01
      vertex   0.000000e+00 -2.540456e+01 4.620757e+01
      vertex   0.000000e+00 3.459544e+01 4.620757e+01
    endloop
  endfacet
  facet normal -1.000000e+00 0.000000e+00 0.000000e+00
    outer loop
      vertex   0.000000e+00 3.259544e+01 4.420757e+01
      vertex   0.000000e+00 3.459544e+01 4.620757e+01
      vertex   0.000000e+00 3.459544e+01 -6.479243e+01
    endloop
  endfacet
  facet normal 0.000000e+00 1.000000e+00 0.000000e+00
    outer loop
      vertex   1.000000e+01 3.459544e+01 -6.479243e+01
      vertex   1.000000e+01 3.459544e+01 4.620757e+01
      vertex   1.200000e+01 3.459544e+01 -6.479243e+01
    endloop
  endfacet
  facet normal 0.000000e+00 1.000000e+00 -0.000000e+00
    outer loop
      vertex   1.200000e+01 3.459544e+01 -6.479243e+01
      vertex   1.000000e+01 3.459544e+01 4.620757e+01
      vertex   1.200000e+01 3.459544e+01 4.620757e+01
    endloop
  endfacet
  facet normal 0.000000e+00 0.000000e+00 -1.000000e+00
    outer loop
      vertex   1.000000e+01 -2.540456e+01 -6.479243e+01
      vertex   1.000000e+01 3.459544e+01 -6.479243e+01
      vertex   1.200000e+01 -2.540456e+01 -6.479243e+01
    endloop
  endfacet
  facet normal 0.000000e+00 0.000000e+00 -1.000000e+00
    outer loop
      vertex   1.200000e+01 -2.540456e+01 -6.479243e+01
      vertex   1.000000e+01 3.459544e+01 -6.479243e+01
      vertex   1.200000e+01 3.459544e+01 -6.479243e+01
    endloop
  endfacet
  facet normal 0.000000e+00 -1.000000e+00 0.000000e+00
    outer loop
      vertex   1.000000e+01 -2.540456e+01 -5.479243e+01
      vertex   1.000000e+01 -2.540456e+01 -6.479243e+01
      vertex   1.200000e+01 -2.540456e+01 -5.479243e+01
    endloop
  endfacet
  facet normal 0.000000e+00 -1.000000e+00 -0.000000e+00
    outer loop
      vertex   1.200000e+01 -2.540456e+01 -5.479243e+01
      vertex   1.000000e+01 -2.540456e+01 -6.479243e+01
      vertex   1.200000e+01 -2.540456e+01 -6.479243e+01
    endloop
  endfacet
  facet normal -0.000000e+00 0.000000e+00 1.000000e+00
    outer loop
      vertex   1.000000e+01 2.459544e+01 -5.479243e+01
      vertex   1.000000e+01 -2.540456e+01 -5.479243e+01
      vertex   1.200000e+01 2.459544e+01 -5.479243e+01
    endloop
  endfacet
  facet normal 0.000000e+00 0.000000e+00 1.000000e+00
    outer loop
      vertex   1.200000e+01 2.459544e+01 -5.479243e+01
      vertex   1.000000e+01 -2.540456e+01 -5.479243e+01
      vertex   1.200000e+01 -2.540456e+01 -5.479243e+01
    endloop
  endfacet
  facet normal 0.000000e+00 -1.000000e+00 0.000000e+00
    outer loop
      vertex   1.000000e+01 2.459544e+01 3.620757e+01
      vertex   1.000000e+01 2.459544e+01 -5.479243e+01
      vertex   1.200000e+01 2.459544e+01 3.620757e+01
    endloop
  endfacet
  facet normal 0.000000e+00 -1.000000e+00 -0.000000e+00
    outer loop
      vertex   1.200000e+01 2.459544e+01 3.620757e+01
      vertex   1.000000e+01 2.459544e+01 -5.479243e+01
      vertex   1.200000e+01 2.459544e+01 -5.479243e+01
    endloop
  endfacet
  facet normal 0.000000e+00 0.000000e+00 -1.000000e+00
    outer loop
      vertex   1.000000e+01 -2.540456e+01 3.620757e+01
      vertex   1.000000e+01 2.459544e+01 3.620757e+01
      vertex   1.200000e+01 -2.540456e+01 3.620757e+01
    endloop
  endfacet
  facet normal 0.000000e+00 0.000000e+00 -1.000000e+00
    outer loop
      vertex   1.200000e+01 -2.540456e+01 3.620757e+01
      vertex   1.000000e+01 2.459544e+01 3.620757e+01
      vertex   1.200000e+01 2.459544e+01 3.620757e+01
    endloop
  endfacet
  facet normal 0.000000e+00 -1.000000e+00 0.000000e+00
    outer loop
      vertex   1.000000e+01 -2.540456e+01 4.620757e+01
      vertex   1.000000e+01 -2.540456e+01 3.620757e+01
      vertex   1.200000e+01 -2.540456e+01 4.620757e+01
    endloop
  endfacet
  facet normal 0.000000e+00 -1.000000e+00 -0.000000e+00
    outer loop
      vertex   1.200000e+01 -2.540456e+01 4.620757e+01
      vertex   1.000000e+01 -2.540456e+01 3.620757e+01
      vertex   1.200000e+01 -2.540456e+01 3.620757e+01
    endloop
  endfacet
  facet normal -0.000000e+00 1.184238e-16 1.000000e+00
    outer loop
      vertex   1.000000e+01 3.459544e+01 4.620757e+01
      vertex   1.000000e+01 -2.540456e+01 4.620757e+01
      vertex   1.200000e+01 3.459544e+01 4.620757e+01
    endloop
  endfacet
  facet normal 0.000000e+00 1.184238e-16 1.000000e+00
    outer loop
      vertex   1.200000e+01 3.459544e+01 4.620757e+01
      vertex   1.000000e+01 -2.540456e+01 4.620757e+01
      vertex   1.200000e+01 -2.540456e+01 4.620757e+01
    endloop
  endfacet
  facet normal 1.000000e+00 0.000000e+00 0.000000e+00
    outer loop
      vertex   1.200000e+01 -2.540456e+01 4.620757e+01
      vertex   1.200000e+01 2.459544e+01 3.620757e+01
      vertex   1.200000e+01 3.459544e+01 4.620757e+01
    endloop
  endfacet
  facet normal 1.000000e+00 0.000000e+00 0.000000e+00
    outer loop
      vertex   1.200000e+01 3.459544e+01 4.620757e+01
      vertex   1.200000e+01 2.459544e+01 3.620757e+01
      vertex   1.200000e+01 2.459544e+01 -5.479243e+01
    endloop
  endfacet
  facet normal 1.000000e+00 0.000000e+00 0.000000e+00
    outer loop
      vertex   1.200000e+01 3.459544e+01 4.620757e+01
      vertex   1.200000e+01 2.459544e+01 -5.479243e+01
      vertex   1.200000e+01 3.459544e+01 -6.479243e+01
    endloop
  endfacet
  facet normal 1.000000e+00 0.000000e+00 0.000000e+00
    outer loop
      vertex   1.200000e+01 3.459544e+01 -6.479243e+01
      vertex   1.200000e+01 2.459544e+01 -5.479243e+01
      vertex   1.200000e+01 -2.540456e+01 -6.479243e+01
    endloop
  endfacet
  facet normal 1.000000e+00 0.000000e+00 0.000000e+00
    outer loop
      vertex   1.200000e+01 -2.540456e+01 -6.479243e+01
      vertex   1.200000e+01 2.459544e+01 -5.479243e+01
      vertex   1.200000e+01 -2.540456e+01 -5.479243e+01
    endloop
  endfacet
  facet normal 1.000000e+00 0.000000e+00 0.000000e+00
    outer loop
      vertex   1.200000e+01 -2.540456e+01 4.620757e+01
      vertex   1.200000e+01 -2.540456e+01 3.620757e+01
      vertex   1.200000e+01 2.459544e+01 3.620757e+01
    endloop
  endfacet
  facet normal -1.000000e+00 0.000000e+00 0.000000e+00
    outer loop
      vertex   1.000000e+01 -2.540456e+01 3.620757e+01
      vertex   1.000000e+01 -2.540456e+01 4.620757e+01
      vertex   1.000000e+01 2.459544e+01 3.620757e+01
    endloop
  endfacet
  facet normal -1.000000e+00 0.000000e+00 0.000000e+00
    outer loop
      vertex   1.000000e+01 2.459544e+01 3.620757e+01
      vertex   1.000000e+01 -2.540456e+01 4.620757e+01
      vertex   1.000000e+01 3.459544e+01 4.620757e+01
    endloop
  endfacet
  facet normal -1.000000e+00 0.000000e+00 0.000000e+00
    outer loop
      vertex   1.000000e+01 2.459544e+01 3.620757e+01
      vertex   1.000000e+01 3.459544e+01 4.620757e+01
      vertex   1.000000e+01 3.459544e+01 -6.479243e+01
    endloop
  endfacet
  facet normal -1.000000e+00 0.000000e+00 0.000000e+00
    outer loop
      vertex   1.000000e+01 2.459544e+01 3.620757e+01
      vertex   1.000000e+01 3.459544e+01 -6.479243e+01
      vertex   1.000000e+01 2.459544e+01 -5.479243e+01
    endloop
  endfacet
  facet normal -1.000000e+00 0.000000e+00 -0.000000e+00
    outer loop
      vertex   1.000000e+01 2.459544e+01 -5.479243e+01
      vertex   1.000000e+01 3.459544e+01 -6.479243e+01
      vertex   1.000000e+01 -2.540456e+01 -6.479243e+01
    endloop
  endfacet
  facet normal -1.000000e+00 -0.000000e+00 0.000000e+00
    outer loop
      vertex   1.000000e+01 2.459544e+01 -5.479243e+01
      vertex   1.000000e+01 -2.540456e+01 -6.479243e+01
      vertex   1.000000e+01 -2.540456e+01 -5.479243e+01
    endloop
  endfacet
endsolid
